<?xml version="1.0" encoding="iso-8859-1"?>
<!-- Generator: Adobe Illustrator 19.0.0, SVG Export Plug-In . SVG Version: 6.00 Build 0)  -->
<svg version="1.1" id="Capa_1" xmlns="http://www.w3.org/2000/svg" xmlns:xlink="http://www.w3.org/1999/xlink" x="0px" y="0px"
	 viewBox="0 0 368 368" style="enable-background:new 0 0 368 368;" xml:space="preserve">
<path style="fill:#CCE4FF;" d="M360,16v56H248H120H8V16c0-4.4,3.6-8,8-8h336C356.4,8,360,11.6,360,16z"/>
<rect x="8" y="72" style="fill:#EFF7FF;" width="112" height="96"/>
<path style="fill:#007AFF;" d="M352,0H16C7.176,0,0,7.176,0,16v336c0,8.824,7.176,16,16,16h336c8.824,0,16-7.176,16-16V16
	C368,7.176,360.824,0,352,0z M128,256v-80h112v80H128z M240,272v80H128v-80H240z M240,80v80H128V80H240z M352,80v80h-96V80H352z
	 M112,160H16V80h96V160z M16,176h96v80H16V176z M256,176h96v80h-96V176z M352,16v48H16V16H352z M16,272h96v80H16V272z M256,352v-80
	h96v80H256z"/>
<g>
</g>
<g>
</g>
<g>
</g>
<g>
</g>
<g>
</g>
<g>
</g>
<g>
</g>
<g>
</g>
<g>
</g>
<g>
</g>
<g>
</g>
<g>
</g>
<g>
</g>
<g>
</g>
<g>
</g>
</svg>
